<svg xmlns="http://www.w3.org/2000/svg" viewBox="0 0 1440 320"><path fill="#0099ff" fill-opacity="1" d="M0,96L30,117.3C60,139,120,181,180,176C240,171,300,117,360,128C420,139,480,213,540,213.3C600,213,660,139,720,117.3C780,96,840,128,900,154.7C960,181,1020,203,1080,186.7C1140,171,1200,117,1260,106.7C1320,96,1380,128,1410,144L1440,160L1440,320L1410,320C1380,320,1320,320,1260,320C1200,320,1140,320,1080,320C1020,320,960,320,900,320C840,320,780,320,720,320C660,320,600,320,540,320C480,320,420,320,360,320C300,320,240,320,180,320C120,320,60,320,30,320L0,320Z"></path></svg>